<svg width="20" height="21" viewBox="0 0 20 21" fill="none" xmlns="http://www.w3.org/2000/svg">
<path d="M0.076416 6.98161V13.7183H4.44757L9.91152 19.3322V1.36771L4.44757 6.98161H0.076416ZM7.72594 6.79074V13.9092L5.35459 11.4727H2.26199V9.22717H5.35459L7.72594 6.79074ZM14.8291 10.3499C14.8291 8.36263 13.7144 6.656 12.0971 5.82515V14.8635C13.7144 14.0439 14.8291 12.3373 14.8291 10.3499ZM12.0971 0.503174V2.8161C15.2553 3.78169 17.561 6.79074 17.561 10.3499C17.561 13.9092 15.2553 16.9182 12.0971 17.8838V20.1967C16.4792 19.175 19.7466 15.1554 19.7466 10.3499C19.7466 5.54445 16.4792 1.5249 12.0971 0.503174Z" fill="white"/>
</svg>
